<svg width="970" height="1286" viewBox="0 0 970 1286" fill="none" xmlns="http://www.w3.org/2000/svg">
<g clip-path="url(#clip0_686035_1696)">
<g opacity="0.1">
<path opacity="0.1" d="M776.69 853.592C776.69 853.592 707.443 838.499 759.087 1026.63C759.087 1026.63 806.15 992.773 808.024 916.415C808.405 901.555 805.526 886.976 799.932 875.442C794.338 863.907 786.417 856.217 777.671 853.829L776.69 853.592Z" fill="#6C63FF"/>
<path opacity="0.1" d="M777.707 853.31C777.707 853.31 793.383 958.208 759.14 1026.64" stroke="#535461" stroke-miterlimit="10"/>
<path opacity="0.1" d="M758.202 1036.33C758.202 1036.33 783.135 933.185 829.695 894.925C849.299 879.086 865.312 852.994 875.325 820.57C880.005 805.127 883.832 788.997 886.758 772.381" stroke="#535461" stroke-width="2" stroke-miterlimit="10"/>
<path opacity="0.1" d="M916.014 747.997C911.16 758.237 886.041 773.227 886.041 773.227C886.041 773.227 889.065 728.703 893.919 718.537C895.026 715.883 896.445 713.638 898.089 711.939C899.732 710.24 901.566 709.124 903.476 708.659C905.386 708.194 907.333 708.39 909.196 709.235C911.06 710.08 912.8 711.557 914.311 713.573C915.822 715.59 917.071 718.104 917.981 720.961C918.891 723.818 919.443 726.958 919.604 730.186C919.764 733.415 919.529 736.665 918.913 739.735C918.297 742.806 917.314 745.633 916.023 748.041L916.014 747.997Z" fill="#6C63FF"/>
<path opacity="0.1" d="M907.394 829.104C900.002 833.275 874.079 822.901 874.079 822.901C874.079 822.901 891.01 788.35 898.402 784.18C900.192 782.948 902.114 782.346 904.049 782.411C905.983 782.476 907.889 783.206 909.649 784.557C911.409 785.907 912.985 787.849 914.279 790.263C915.574 792.677 916.56 795.511 917.176 798.589C917.793 801.668 918.026 804.927 917.862 808.163C917.698 811.399 917.141 814.545 916.224 817.405C915.307 820.265 914.05 822.779 912.531 824.791C911.013 826.803 909.264 828.271 907.394 829.104Z" fill="#6C63FF"/>
<path opacity="0.1" d="M860.659 924.993C853.028 922.336 833.763 891.407 833.763 891.407C833.763 891.407 858.766 875.928 866.406 878.585C869.862 880.202 872.824 883.963 874.69 889.108C876.556 894.253 877.188 900.396 876.458 906.293C875.727 912.19 873.689 917.401 870.755 920.87C867.822 924.34 864.213 925.808 860.659 924.978V924.993Z" fill="#6C63FF"/>
<path opacity="0.1" d="M815.566 984.18C807.777 983.72 785.673 958.712 785.673 958.712C785.673 958.712 808.767 936.332 816.556 936.807C820.127 937.417 823.427 940.283 825.786 944.824C828.145 949.365 829.388 955.242 829.262 961.264C829.136 967.285 827.651 973.001 825.108 977.254C822.565 981.506 819.154 983.977 815.566 984.165V984.18Z" fill="#6C63FF"/>
<path opacity="0.1" d="M849.942 793.856C850.941 806.842 867.819 841.452 867.819 841.452C867.819 841.452 878.933 800.787 877.943 787.801C877.821 784.558 877.305 781.392 876.425 778.498C875.545 775.604 874.321 773.044 872.828 770.976C871.335 768.908 869.606 767.376 867.746 766.476C865.886 765.575 863.936 765.325 862.017 765.74C860.097 766.155 858.248 767.227 856.585 768.889C854.923 770.552 853.481 772.769 852.349 775.405C851.217 778.04 850.419 781.038 850.005 784.211C849.591 787.385 849.57 790.668 849.942 793.856Z" fill="#6C63FF"/>
<path opacity="0.1" d="M797.724 864.263C800.987 876.136 823.267 900.698 823.267 900.698C823.267 900.698 826.627 856.308 823.364 844.435C822.669 841.405 821.611 838.646 820.256 836.329C818.9 834.013 817.276 832.187 815.484 830.966C813.691 829.745 811.769 829.153 809.835 829.229C807.901 829.304 805.997 830.044 804.24 831.404C802.483 832.763 800.911 834.713 799.621 837.133C798.331 839.552 797.351 842.39 796.74 845.471C796.129 848.553 795.902 851.811 796.071 855.046C796.24 858.28 796.803 861.422 797.724 864.278V864.263Z" fill="#6C63FF"/>
<path opacity="0.1" d="M752.561 944.316C754.577 956.961 774.073 987.474 774.073 987.474C774.073 987.474 781.853 944.687 779.829 932.043C779.452 928.854 778.69 925.828 777.588 923.154C776.487 920.48 775.07 918.214 773.425 916.497C771.781 914.779 769.944 913.647 768.028 913.17C766.112 912.693 764.159 912.881 762.288 913.723C760.417 914.565 758.67 916.043 757.153 918.065C755.637 920.087 754.384 922.61 753.472 925.479C752.56 928.347 752.009 931.498 751.852 934.739C751.695 937.979 751.937 941.239 752.561 944.316Z" fill="#6C63FF"/>
<path opacity="0.25" d="M916.014 747.997C911.16 758.237 886.041 773.227 886.041 773.227C886.041 773.227 889.065 728.703 893.919 718.537C895.026 715.883 896.445 713.638 898.089 711.939C899.732 710.24 901.566 709.124 903.476 708.659C905.386 708.194 907.333 708.39 909.196 709.235C911.06 710.08 912.8 711.557 914.311 713.573C915.822 715.59 917.071 718.104 917.981 720.961C918.891 723.818 919.443 726.958 919.604 730.186C919.764 733.415 919.529 736.665 918.913 739.735C918.297 742.806 917.314 745.633 916.023 748.041L916.014 747.997Z" fill="black"/>
<path opacity="0.25" d="M907.394 829.104C900.002 833.275 874.079 822.901 874.079 822.901C874.079 822.901 891.01 788.35 898.402 784.18C900.192 782.948 902.114 782.346 904.049 782.411C905.983 782.476 907.889 783.206 909.649 784.557C911.409 785.907 912.985 787.849 914.279 790.263C915.574 792.677 916.56 795.511 917.176 798.589C917.793 801.668 918.026 804.927 917.862 808.163C917.698 811.399 917.141 814.545 916.224 817.405C915.307 820.265 914.05 822.779 912.531 824.791C911.013 826.803 909.264 828.271 907.394 829.104Z" fill="black"/>
<path opacity="0.25" d="M860.659 924.993C853.028 922.336 833.763 891.407 833.763 891.407C833.763 891.407 858.766 875.928 866.406 878.585C869.862 880.202 872.824 883.963 874.69 889.108C876.556 894.253 877.188 900.396 876.458 906.293C875.727 912.19 873.689 917.401 870.755 920.87C867.822 924.34 864.213 925.808 860.659 924.978V924.993Z" fill="black"/>
<path opacity="0.25" d="M815.566 984.18C807.777 983.72 785.673 958.712 785.673 958.712C785.673 958.712 808.767 936.332 816.556 936.807C820.127 937.417 823.427 940.283 825.786 944.824C828.145 949.365 829.388 955.242 829.262 961.264C829.136 967.285 827.651 973.001 825.108 977.254C822.565 981.506 819.154 983.977 815.566 984.165V984.18Z" fill="black"/>
<path opacity="0.25" d="M849.942 793.856C850.941 806.842 867.819 841.452 867.819 841.452C867.819 841.452 878.933 800.787 877.943 787.801C877.821 784.558 877.305 781.392 876.425 778.498C875.545 775.604 874.321 773.044 872.828 770.976C871.335 768.908 869.606 767.376 867.746 766.476C865.886 765.575 863.936 765.325 862.017 765.74C860.097 766.155 858.248 767.227 856.585 768.889C854.923 770.552 853.481 772.769 852.349 775.405C851.217 778.04 850.419 781.038 850.005 784.211C849.591 787.385 849.57 790.668 849.942 793.856Z" fill="black"/>
<path opacity="0.25" d="M797.724 864.263C800.987 876.136 823.267 900.698 823.267 900.698C823.267 900.698 826.627 856.308 823.364 844.435C822.669 841.405 821.611 838.646 820.256 836.329C818.9 834.013 817.276 832.187 815.484 830.966C813.691 829.745 811.769 829.153 809.835 829.229C807.901 829.304 805.997 830.044 804.24 831.404C802.483 832.763 800.911 834.713 799.621 837.133C798.331 839.552 797.351 842.39 796.74 845.471C796.129 848.553 795.902 851.811 796.071 855.046C796.24 858.28 796.803 861.422 797.724 864.278V864.263Z" fill="black"/>
<path opacity="0.25" d="M752.561 944.316C754.577 956.961 774.073 987.474 774.073 987.474C774.073 987.474 781.853 944.687 779.829 932.043C779.452 928.854 778.69 925.828 777.588 923.154C776.487 920.48 775.07 918.214 773.425 916.497C771.781 914.779 769.944 913.647 768.028 913.17C766.112 912.693 764.159 912.881 762.288 913.723C760.417 914.565 758.67 916.043 757.153 918.065C755.637 920.087 754.384 922.61 753.472 925.479C752.56 928.347 752.009 931.498 751.852 934.739C751.695 937.979 751.937 941.239 752.561 944.316Z" fill="black"/>
<path opacity="0.1" d="M791.411 1083.26C791.411 1083.26 816.344 980.113 862.903 941.853C882.5 926.002 898.503 899.906 908.508 867.483C913.187 852.04 917.014 835.91 919.94 819.294" stroke="#535461" stroke-width="2" stroke-miterlimit="10"/>
<path opacity="0.1" d="M949.179 794.895C944.325 805.135 919.206 820.125 919.206 820.125C919.206 820.125 922.23 775.601 927.084 765.435C929.494 760.939 932.835 758.156 936.425 757.654C940.016 757.151 943.585 758.967 946.405 762.731C949.225 766.496 951.083 771.924 951.6 777.91C952.117 783.895 951.254 789.986 949.187 794.939L949.179 794.895Z" fill="#6C63FF"/>
<path opacity="0.1" d="M940.575 876.002C933.184 880.173 907.261 869.799 907.261 869.799C907.261 869.799 924.192 835.249 931.584 831.078C935.057 829.532 938.75 830.262 941.914 833.12C945.079 835.978 947.476 840.75 948.621 846.468C949.765 852.185 949.57 858.419 948.076 863.904C946.582 869.39 943.9 873.715 940.575 876.002Z" fill="#6C63FF"/>
<path opacity="0.1" d="M893.84 971.951C886.21 969.294 866.944 938.365 866.944 938.365C866.944 938.365 891.948 922.886 899.587 925.542C903.044 927.16 906.005 930.921 907.871 936.066C909.738 941.211 910.37 947.353 909.639 953.251C908.909 959.148 906.87 964.359 903.937 967.828C901.004 971.298 897.394 972.766 893.84 971.936V971.951Z" fill="#6C63FF"/>
<path opacity="0.1" d="M848.739 1031.06C840.949 1030.6 818.846 1005.6 818.846 1005.6C818.846 1005.6 841.94 983.245 849.729 983.705C853.3 984.315 856.6 987.181 858.959 991.722C861.318 996.263 862.561 1002.14 862.435 1008.16C862.309 1014.18 860.824 1019.9 858.281 1024.15C855.738 1028.4 852.327 1030.88 848.739 1031.06Z" fill="#6C63FF"/>
<path opacity="0.1" d="M883.115 840.814C884.115 853.8 900.993 888.41 900.993 888.41C900.993 888.41 912.107 847.745 911.116 834.759C910.995 831.516 910.478 828.35 909.599 825.456C908.719 822.562 907.495 820.002 906.002 817.934C904.509 815.866 902.779 814.334 900.92 813.433C899.06 812.533 897.11 812.282 895.19 812.697C893.271 813.112 891.422 814.184 889.759 815.847C888.096 817.509 886.654 819.727 885.522 822.362C884.391 824.998 883.593 827.995 883.179 831.169C882.765 834.343 882.743 837.625 883.115 840.814Z" fill="#6C63FF"/>
<path opacity="0.1" d="M830.906 911.102C834.168 922.975 856.449 947.537 856.449 947.537C856.449 947.537 859.809 903.147 856.546 891.274C854.834 885.969 851.984 881.957 848.573 880.052C845.163 878.147 841.449 878.493 838.185 881.019C834.921 883.545 832.352 888.062 831 893.652C829.648 899.242 829.614 905.486 830.906 911.117V911.102Z" fill="#6C63FF"/>
<path opacity="0.1" d="M785.745 991.244C787.76 1003.89 807.256 1034.4 807.256 1034.4C807.256 1034.4 815.036 991.615 813.012 978.971C811.854 973.267 809.448 968.516 806.281 965.679C803.115 962.842 799.424 962.132 795.957 963.693C792.49 965.253 789.506 968.968 787.61 974.084C785.714 979.199 785.047 985.334 785.745 991.244Z" fill="#6C63FF"/>
</g>
<path opacity="0.1" d="M10.4766 638.127C25.8254 748.249 58.3179 843.44 109.669 889.582C216.386 985.471 457.06 936.02 636.684 879.193C727.442 850.584 809.824 771.543 870.568 654.794L10.4766 638.127Z" fill="#6C63FF"/>
<path opacity="0.1" d="M952.405 119.784H853.849C851.59 119.784 849.423 118.277 847.825 115.596C846.228 112.914 845.33 109.277 845.33 105.484C845.33 101.692 846.228 98.0548 847.825 95.3731C849.423 92.6914 851.59 91.1849 853.849 91.1849H870.887C868.627 91.1849 866.461 89.6783 864.863 86.9967C863.265 84.315 862.368 80.6778 862.368 76.8854C862.368 73.0929 863.265 69.4558 864.863 66.7741C866.461 64.0924 868.627 62.5859 870.887 62.5859H858.721C856.461 62.5859 854.295 61.0793 852.697 58.3977C851.099 55.716 850.202 52.0788 850.202 48.2864C850.202 44.4939 851.099 40.8568 852.697 38.1751C854.295 35.4934 856.461 33.9869 858.721 33.9869H910.161C898.746 25.0821 885.404 18.745 870.038 15.4205C729.776 -14.8259 679.698 5.18009 662.033 25.8094C640.239 51.1878 615.925 69.8581 589.939 78.8518C503.39 108.787 341.547 144.851 194.857 67.2757C121.95 28.6886 67.7609 93.8712 35.2861 202.746H969.513C968.293 171.105 964.642 141.897 957.94 116.311C956.403 118.546 954.439 119.779 952.405 119.784Z" fill="#6C63FF"/>
<path opacity="0.1" d="M2.11327 408.282C-1.67043 472.329 -0.383113 536.936 5.94164 600.416L871.241 653.533C895.328 607.022 915.552 555.25 931.363 499.629L2.11327 408.282ZM344.35 545.34H327.312C329.571 545.34 331.738 546.847 333.336 549.528C334.933 552.21 335.831 555.847 335.831 559.64C335.831 563.432 334.933 567.069 333.336 569.751C331.738 572.433 329.571 573.939 327.312 573.939H228.756C226.497 573.939 224.33 572.433 222.732 569.751C221.135 567.069 220.237 563.432 220.237 559.64C220.237 555.847 221.135 552.21 222.732 549.528C224.33 546.847 226.497 545.34 228.756 545.34H245.794C243.534 545.34 241.367 543.834 239.77 541.152C238.172 538.47 237.275 534.833 237.275 531.041C237.275 527.248 238.172 523.611 239.77 520.929C241.367 518.248 243.534 516.741 245.794 516.741H233.628C231.368 516.741 229.202 515.235 227.604 512.553C226.006 509.871 225.109 506.234 225.109 502.442C225.109 498.649 226.006 495.012 227.604 492.33C229.202 489.649 231.368 488.142 233.628 488.142H332.184C334.443 488.142 336.61 489.649 338.207 492.33C339.805 495.012 340.703 498.649 340.703 502.442C340.703 506.234 339.805 509.871 338.207 512.553C336.61 515.235 334.443 516.741 332.184 516.741H344.35C346.609 516.741 348.776 518.248 350.373 520.929C351.971 523.611 352.868 527.248 352.868 531.041C352.868 534.833 351.971 538.47 350.373 541.152C348.776 543.834 346.609 545.34 344.35 545.34Z" fill="#6C63FF"/>
<path opacity="0.1" d="M969.558 203.74L24.8537 242.327C13.3686 291.912 5.79148 347.967 2.25488 406.07H953.007C959.215 371.939 963.806 337.038 966.738 301.692C969.567 267.542 970.699 234.506 969.558 203.74ZM194.045 330.143H177.007C179.266 330.143 181.433 331.649 183.031 334.331C184.628 337.013 185.526 340.65 185.526 344.442C185.526 348.235 184.628 351.872 183.031 354.553C181.433 357.235 179.266 358.742 177.007 358.742H78.4509C76.1915 358.742 74.0247 357.235 72.4272 354.553C70.8296 351.872 69.9321 348.235 69.9321 344.442C69.9321 340.65 70.8296 337.013 72.4272 334.331C74.0247 331.649 76.1915 330.143 78.4509 330.143H95.4884C93.2291 330.143 91.0623 328.636 89.4647 325.954C87.8671 323.273 86.9696 319.636 86.9696 315.843C86.9696 312.051 87.8671 308.413 89.4647 305.732C91.0623 303.05 93.2291 301.544 95.4884 301.544H83.3225C81.0632 301.544 78.8964 300.037 77.2988 297.355C75.7013 294.674 74.8037 291.037 74.8037 287.244C74.8037 283.452 75.7013 279.815 77.2988 277.133C78.8964 274.451 81.0632 272.945 83.3225 272.945H181.879C184.138 272.945 186.305 274.451 187.902 277.133C189.5 279.815 190.397 283.452 190.397 287.244C190.397 291.037 189.5 294.674 187.902 297.355C186.305 300.037 184.138 301.544 181.879 301.544H194.045C196.304 301.544 198.471 303.05 200.068 305.732C201.666 308.413 202.563 312.051 202.563 315.843C202.563 319.636 201.666 323.273 200.068 325.954C198.471 328.636 196.304 330.143 194.045 330.143Z" fill="#6C63FF"/>
<path d="M829.934 1204.07C829.934 1204.07 790.536 841.348 715.41 782.488C651.751 732.577 582.911 698.932 563.336 689.804C560.413 681.901 557.034 674.499 553.248 667.706C526.494 620.822 510.42 621.698 507.82 622.277C506.587 612.979 505.701 603.562 505.168 594.079C505.088 592.594 505.009 591.214 504.938 589.745L505.168 589.552C505.009 586.747 504.867 583.853 504.744 580.87C515.665 571.086 525.72 558.792 534.619 544.346C534.734 544.984 534.831 545.622 534.955 546.275C554.235 518.918 573.118 490.818 591.602 461.977C596.907 453.651 602.477 444.613 604.281 432.873C604.859 428.833 605.082 424.674 604.944 420.525C605.183 411.621 603.928 402.523 603.715 393.5C603.715 392.016 603.813 390.635 603.928 389.225C605.165 374.458 611.284 362.333 616.306 349.941C628.852 318.624 635.401 281.621 635.076 243.885C635.213 225.804 633.723 207.791 630.655 190.457C626.739 168.462 618.587 145.355 605.015 140.546C599.763 138.691 594.308 139.849 588.95 139.27C566.767 136.895 550.162 106.619 532.471 84.4315C510.878 57.483 485.343 40.8466 458.573 36.2866C450.218 34.8025 441.589 34.6986 433.64 39.151C415.789 49.1243 404.95 79.9198 387.753 92.5793C375.039 101.989 360.344 100.46 347.082 107.524C327.339 118.062 310.585 152.048 310.142 186.969C310.142 188.261 310.142 189.552 310.142 190.843C310.142 191.066 310.142 191.288 310.142 191.496C309.921 209.142 313.679 227.115 313.98 245.177C313.98 246.809 313.994 248.447 314.024 250.089C313.927 269.59 312.538 289.151 308.303 307.48C306.022 317.349 303.087 328.777 303.564 338.647C303.299 344.687 303.998 350.356 306.5 354.972L310.77 348.65C309.338 361.661 308.619 374.866 308.622 388.097C308.622 454.794 326.694 514.515 355.199 554.705C355.364 559.147 355.523 563.906 355.676 568.982C356.348 590.977 356.879 618.567 356.728 648.635L315.032 712.971L207.838 794.598C207.838 794.598 109.803 829.356 130.917 1060.54L140.996 1204.08H230.498L230.295 1204.84H363.138L363.218 1204.08H679.284L679.222 1204.84H691.6V1204.08L829.934 1204.07ZM508.607 625.957C511.317 635.365 513.45 645.211 514.973 655.343C511.845 645.593 509.533 635.165 508.103 624.355L508.236 624.755L508.607 625.957ZM356.693 655.64C356.693 658.47 356.663 661.324 356.604 664.203L356.392 664.708C356.378 661.653 356.478 658.599 356.693 655.566V655.64Z" fill="url(#paint0_linear_686035_1696)"/>
<path d="M543.575 692.045L525.892 975.512L431.288 1025.97C431.288 1025.97 308.391 987.385 340.221 876.076C362.864 796.898 362.236 655.402 359.99 580.306C359.106 549.822 357.904 530.276 357.904 530.276C357.904 530.276 518.819 294.301 505.557 506.53C502.993 547.626 502.842 579.757 504.266 604.868C510.234 709.41 543.575 692.045 543.575 692.045Z" fill="#FDC2CC"/>
<path opacity="0.03" d="M543.575 692.045L525.892 975.512L431.288 1025.97C431.288 1025.97 308.391 987.385 340.221 876.076C362.864 796.898 362.236 655.402 359.99 580.306C359.106 549.822 357.904 530.276 357.904 530.276C357.904 530.276 518.819 294.301 505.557 506.53C502.993 547.626 502.842 579.757 504.266 604.868C510.234 709.41 543.575 692.045 543.575 692.045Z" fill="black"/>
<path opacity="0.1" d="M505.557 502.078C502.993 543.173 502.843 575.305 504.266 600.416C481.549 621.234 455.612 630.029 429.862 625.645C404.112 621.261 379.755 603.904 359.991 575.854C359.107 545.37 357.904 525.824 357.904 525.824C357.904 525.824 518.819 289.849 505.557 502.078Z" fill="black"/>
<path d="M442.783 617.854C513.586 617.854 570.984 521.507 570.984 402.657C570.984 283.806 513.586 187.459 442.783 187.459C371.979 187.459 314.581 283.806 314.581 402.657C314.581 521.507 371.979 617.854 442.783 617.854Z" fill="#FDC2CC"/>
<path opacity="0.03" d="M442.783 617.854C513.586 617.854 570.984 521.507 570.984 402.657C570.984 283.806 513.586 187.459 442.783 187.459C371.979 187.459 314.581 283.806 314.581 402.657C314.581 521.507 371.979 617.854 442.783 617.854Z" fill="black"/>
<path opacity="0.1" d="M231.471 978.481C231.471 978.481 273.026 1120.96 275.236 1204.81L231.471 978.481Z" fill="black"/>
<path opacity="0.1" d="M684.155 1060.12L672.219 1204.82H684.155V1060.12Z" fill="black"/>
<path opacity="0.1" d="M240.754 1204.81L306.623 953.25C306.623 953.25 325.19 893.886 329.611 834.521C334.032 775.156 357.904 681.656 357.904 681.656C357.904 681.656 417.142 555.506 444.55 573.316C471.959 591.125 420.678 657.91 420.678 657.91C420.678 657.91 495.831 706.887 444.55 852.33C393.27 997.774 392.385 971.06 392.385 971.06L367.187 1204.81H240.754Z" fill="black"/>
<path d="M238.986 1204.81L304.855 953.251C304.855 953.251 323.423 893.886 327.843 834.521C330.655 796.78 341.327 745.236 348.727 712.689C353.557 691.411 360.665 671.795 369.699 654.809C388.85 618.834 423.632 560.819 442.783 573.286C470.191 591.095 418.911 657.881 418.911 657.881C418.911 657.881 494.063 706.857 442.783 852.301C391.502 997.744 390.618 971.03 390.618 971.03L365.42 1204.78L238.986 1204.81Z" fill="#FDC2CC"/>
<path opacity="0.15" d="M482.127 286.153C483.592 286.153 484.78 284.16 484.78 281.701C484.78 279.242 483.592 277.249 482.127 277.249C480.662 277.249 479.475 279.242 479.475 281.701C479.475 284.16 480.662 286.153 482.127 286.153Z" fill="white"/>
<path opacity="0.15" d="M469.749 295.058C471.214 295.058 472.402 293.065 472.402 290.606C472.402 288.147 471.214 286.153 469.749 286.153C468.284 286.153 467.097 288.147 467.097 290.606C467.097 293.065 468.284 295.058 469.749 295.058Z" fill="white"/>
<path opacity="0.1" d="M351.705 131.463C364.499 124.518 378.698 126.017 390.97 116.786C407.566 104.289 418.025 74.0428 435.248 64.2476C442.923 59.8843 451.251 60.0476 459.306 61.4426C485.207 65.9675 509.873 82.3269 530.621 108.742C547.694 130.543 563.715 160.27 585.12 162.6C590.293 163.164 595.553 162.021 600.62 163.847C613.74 168.566 621.6 191.259 625.376 212.823C629.743 238.379 630.767 265.218 628.377 291.501C625.988 317.784 620.24 342.888 611.53 365.094C606.685 377.264 600.779 389.181 599.585 403.681C598.418 417.899 602.025 432.636 599.921 446.557C598.153 458.089 592.848 466.964 587.685 475.141C569.854 503.448 551.632 531.028 533.018 557.881C523.345 506.293 537.536 450.742 535.325 396.795C534.441 375.779 530.02 352.835 518.977 342.921C508.642 333.66 495.432 338.469 484.973 329.564C473.302 319.694 468.51 296.32 459.686 280.143C444.656 252.538 418.564 248.976 397.548 261.443C376.532 273.909 359.353 299.555 342.731 324.562L312.52 370.051C306.622 358.89 311.096 341.763 314.288 327.813C319.045 306.901 320.088 284.358 319.77 262.155C319.513 244.346 315.853 226.759 316.065 209.424C316.489 175.23 332.652 141.808 351.705 131.463Z" fill="black"/>
<path d="M351.705 127.011C364.499 120.065 378.698 121.564 390.97 112.333C407.566 99.8369 418.025 69.5905 435.248 59.7953C442.923 55.432 451.251 55.5953 459.306 56.9903C485.207 61.5152 509.873 77.8746 530.621 104.289C547.694 126.091 563.715 155.818 585.12 158.148C590.293 158.712 595.553 157.569 600.62 159.395C613.74 164.114 621.6 186.806 625.376 208.371C629.743 233.927 630.767 260.766 628.377 287.049C625.988 313.331 620.24 338.436 611.53 360.641C606.685 372.811 600.779 384.729 599.585 399.229C598.418 413.446 602.025 428.184 599.921 442.105C598.153 453.636 592.848 462.511 587.685 470.689C569.854 498.996 551.632 526.576 533.018 553.429C523.345 501.841 537.536 446.29 535.325 392.342C534.441 371.327 530.02 348.383 518.977 338.469C508.642 329.208 495.432 334.016 484.973 325.112C473.302 315.242 468.51 291.867 459.686 275.69C444.656 248.086 418.564 244.524 397.548 256.99C376.532 269.457 359.353 295.103 342.731 320.11L312.52 365.598C306.622 354.438 311.096 337.311 314.288 323.36C319.045 302.449 320.088 279.905 319.77 257.703C319.513 239.893 315.853 222.307 316.065 204.972C316.489 170.778 332.652 137.355 351.705 127.011Z" fill="#865A61"/>
</g>
<defs>
<linearGradient id="paint0_linear_686035_1696" x1="478.927" y1="1204.81" x2="478.927" y2="35.2922" gradientUnits="userSpaceOnUse">
<stop stop-color="#808080" stop-opacity="0.25"/>
<stop offset="0.54" stop-color="#808080" stop-opacity="0.12"/>
<stop offset="1" stop-color="#808080" stop-opacity="0.1"/>
</linearGradient>
<clipPath id="clip0_686035_1696">
<rect width="970" height="1286" fill="white"/>
</clipPath>
</defs>
</svg>
